<svg width="26" height="27" viewBox="0 0 26 27" fill="none" xmlns="http://www.w3.org/2000/svg">
    <path d="M14.4885 0.567213C13.6533 -0.189071 12.3467 -0.189071 11.5115 0.567213L1.01721 10.0694C0.3679 10.6574 0 11.4754 0 12.3312V23.8875C0 25.6064 1.45507 27 3.25 27H6.5C8.29493 27 9.75 25.6064 9.75 23.8875V18.6999C9.75 18.127 10.235 17.6625 10.8333 17.6625H15.1667C15.765 17.6625 16.25 18.127 16.25 18.6999V23.8875C16.25 25.6064 17.7051 27 19.5 27H22.75C24.5449 27 26 25.6064 26 23.8875V12.3312C26 11.4754 25.6321 10.6574 24.9828 10.0694L14.4885 0.567213Z" fill="black"/>
</svg>
