<svg width="664" height="387" viewBox="0 0 664 387" fill="none" xmlns="http://www.w3.org/2000/svg">
    <path d="M73.8675 348.025V290.477C73.8675 285.896 73.295 283.033 71.8638 281.601C70.4326 280.17 67.5702 279.597 62.9903 279.597H35.2249C12.3256 279.597 0.875977 268.431 0.875977 246.099V183.969C0.875977 161.923 12.6119 150.757 35.7974 150.757H72.7225C95.908 150.757 107.644 161.923 107.644 183.969V210.596C107.644 214.891 104.209 218.327 99.9154 218.327H81.3097C77.0161 218.327 73.5812 214.891 73.5812 210.596V189.123C73.5812 184.542 72.7225 181.679 71.2913 180.247C69.8601 178.816 66.7114 178.243 62.1316 178.243H46.3883C41.8085 178.243 38.9461 178.816 37.2286 180.247C35.7974 181.679 34.9387 184.542 34.9387 189.123V241.518C34.9387 246.099 35.7974 248.962 37.2286 250.393C38.6598 251.825 41.8085 252.398 46.3883 252.398H73.8675C97.053 252.398 108.503 263.564 108.503 285.61V353.465C108.503 375.511 96.7668 386.677 73.0088 386.677H36.6561C13.4706 386.677 1.7347 375.511 1.7347 353.465V326.552C1.7347 322.257 5.16959 318.822 9.46321 318.822H28.0689C32.3625 318.822 35.7974 322.257 35.7974 326.552V348.025C35.7974 352.606 36.6561 355.469 38.0873 356.901C39.5185 358.333 42.6672 358.905 47.247 358.905H62.9903C67.5702 358.905 70.4326 358.333 71.8638 356.901C73.295 355.469 73.8675 352.32 73.8675 348.025Z" fill="#F0F0F5"/>
    <path d="M269.085 300.211V271.008C269.085 252.684 281.393 243.522 305.724 243.522H374.422C399.038 243.522 411.347 252.398 411.347 270.435V303.361C411.347 306.797 412.206 309.373 413.637 310.232C415.068 311.378 418.503 311.95 423.369 311.95H487.201C492.067 311.95 495.502 311.378 496.933 310.232C498.364 309.087 499.223 306.797 499.223 303.361L529.564 311.378C529.564 329.988 517.256 339.15 492.926 339.15H417.93C393.6 339.15 381.292 329.988 381.292 311.95V279.311C381.292 275.875 380.433 273.298 379.002 272.153C377.57 271.008 374.135 270.435 369.269 270.435H311.449C306.583 270.435 303.148 271.008 301.716 272.153C300.285 273.298 299.427 275.589 299.427 279.311V291.622L269.085 300.211Z" fill="#F0F0F5"/>
    <path d="M221.567 379.806L214.411 338.005C213.839 334.282 210.69 331.706 206.683 331.706H170.33C166.609 331.706 163.46 334.569 162.601 338.291L156.018 379.806C155.445 383.528 152.297 386.391 148.289 386.391H130.256C125.39 386.391 121.955 382.096 122.814 377.229L161.743 157.056C162.315 153.334 165.464 150.757 169.185 150.757H205.538C209.259 150.757 212.407 153.334 212.98 157.056L254.771 377.229C255.63 382.096 251.909 386.391 247.329 386.391H229.009C225.575 386.391 222.426 383.528 221.567 379.806ZM174.337 304.22H202.389C205.824 304.22 208.4 301.07 207.828 297.921L193.229 212.6C192.084 206.588 183.497 206.588 182.352 212.6L168.899 297.921C168.326 301.357 170.902 304.22 174.337 304.22Z" fill="#F0F0F5"/>
    <path d="M370.127 219.472H351.521C347.227 219.472 343.792 216.036 343.792 211.742V188.264C343.792 183.683 342.934 180.82 341.502 179.388C340.071 177.957 336.923 177.384 332.343 177.384H313.165C308.585 177.384 305.722 177.957 304.005 179.388C302.574 180.82 301.715 183.683 301.715 188.264V348.884C301.715 353.465 302.574 356.328 304.005 357.76C305.436 359.192 308.585 359.764 313.165 359.764H485.482C490.062 359.764 492.924 359.192 494.641 357.76C496.073 356.328 496.931 353.465 496.931 348.884V295.631C496.931 293.34 494.928 291.336 492.638 291.336H486.054C481.761 291.336 478.326 287.9 478.326 283.605V272.726C478.326 268.431 481.761 264.995 486.054 264.995H523.552C527.845 264.995 531.28 268.431 531.28 272.726V352.893C531.28 375.225 519.544 386.391 496.359 386.391H302.86C279.674 386.391 267.938 375.225 267.938 352.893V183.969C267.938 161.923 279.674 150.757 302.86 150.757H343.22C366.405 150.757 378.141 161.923 378.141 183.969V212.028C377.855 216.036 374.42 219.472 370.127 219.472Z" fill="#F0F0F5"/>
    <path d="M663.285 150.591V168.915C663.285 170.06 662.999 170.919 662.712 172.065L587.717 348.432C587.145 349.863 588.29 351.868 590.007 351.868H653.839C658.133 351.868 661.567 355.303 661.567 359.598V371.623C661.567 375.918 658.133 379.353 653.839 379.353H559.379C555.086 379.353 551.651 375.918 551.651 371.623V353.299C551.651 352.154 551.937 351.295 552.223 350.15L627.219 173.782C627.791 172.351 626.646 170.347 624.929 170.347H563.101C558.807 170.347 555.372 166.911 555.372 162.616V150.591C555.372 146.297 558.807 142.861 563.101 142.861H655.27C659.85 143.147 663.285 146.583 663.285 150.591Z" fill="#F0F0F5"/>
    <path d="M461.484 302.623H442.879C438.585 302.623 435.15 300.332 435.15 297.469V252.232L386.203 146.297C385.344 144.579 387.348 143.148 389.638 143.148H395.363C409.388 143.148 421.983 149.733 425.418 158.895L448.317 220.452C449.462 223.028 454.901 223.028 456.046 220.452L477.514 159.181C480.663 149.733 493.257 143.148 507.283 143.148H512.722C515.298 143.148 517.015 144.866 516.156 146.297L469.499 252.232V297.469C469.213 300.332 465.778 302.623 461.484 302.623Z" fill="#F0F0F5"/>
    <path d="M458.909 77.5823H443.166V268.551H458.909V77.5823Z" fill="#F0F0F5"/>
    <path d="M451.18 86.1716C459.084 86.1716 465.492 79.7623 465.492 71.8561C465.492 63.9498 459.084 57.5405 451.18 57.5405C443.275 57.5405 436.868 63.9498 436.868 71.8561C436.868 79.7623 443.275 86.1716 451.18 86.1716Z" fill="#F0F0F5"/>
    <path d="M451.18 107.931C477.422 107.931 498.696 86.6523 498.696 60.4036C498.696 34.1548 477.422 12.876 451.18 12.876C424.937 12.876 403.664 34.1548 403.664 60.4036C403.664 86.6523 424.937 107.931 451.18 107.931Z" stroke="#F0F0F5" stroke-width="9.98561" stroke-miterlimit="10"/>
    <path d="M451.18 4V21.7513" stroke="#F0F0F5" stroke-width="7.48921" stroke-miterlimit="10" stroke-linecap="round"/>
    <path d="M507.568 60.4031H490.107" stroke="#F0F0F5" stroke-width="7.48921" stroke-miterlimit="10" stroke-linecap="round"/>
    <path d="M412.251 60.4031H394.79" stroke="#F0F0F5" stroke-width="7.48921" stroke-miterlimit="10" stroke-linecap="round"/>
    <path d="M429.139 24.6142L420.551 9.4397" stroke="#F0F0F5" stroke-width="7.48921" stroke-miterlimit="10" stroke-linecap="round"/>
    <path d="M414.827 41.7934L399.656 32.9177" stroke="#F0F0F5" stroke-width="7.48921" stroke-miterlimit="10" stroke-linecap="round"/>
    <path d="M429.139 95.9062L420.551 111.081" stroke="#F0F0F5" stroke-width="7.48921" stroke-miterlimit="10" stroke-linecap="round"/>
    <path d="M414.827 78.7275L399.656 87.6032" stroke="#F0F0F5" stroke-width="7.48921" stroke-miterlimit="10" stroke-linecap="round"/>
    <path d="M471.501 24.901L480.375 9.72656" stroke="#F0F0F5" stroke-width="7.48921" stroke-miterlimit="10" stroke-linecap="round"/>
    <path d="M485.814 42.0792L500.985 33.2036" stroke="#F0F0F5" stroke-width="7.48921" stroke-miterlimit="10" stroke-linecap="round"/>
    <path d="M471.501 96.1921L480.375 111.367" stroke="#F0F0F5" stroke-width="7.48921" stroke-miterlimit="10" stroke-linecap="round"/>
    <path d="M485.814 79.0134L500.985 87.8891" stroke="#F0F0F5" stroke-width="7.48921" stroke-miterlimit="10" stroke-linecap="round"/>
    <path d="M460.34 331.54H444.31C439.158 331.54 435.15 327.532 435.15 322.378V236.485H469.499V322.378C469.213 327.532 465.206 331.54 460.34 331.54Z" fill="#F0F0F5"/>
</svg>
